<?xml version="1.0" standalone="no"?>
<!DOCTYPE svg PUBLIC "-//W3C//DTD SVG 20010904//EN"
 "http://www.w3.org/TR/2001/REC-SVG-20010904/DTD/svg10.dtd">
<svg version="1.0" xmlns="http://www.w3.org/2000/svg"
 width="289.000000pt" height="289.000000pt" viewBox="0 0 289.000000 289.000000"
 preserveAspectRatio="xMidYMid meet">
<metadata>
Created by potrace 1.11, written by Peter Selinger 2001-2013
</metadata>
<g transform="translate(0.000000,289.000000) scale(0.100000,-0.100000)"
fill="#000000" stroke="none">
<path d="M0 1445 l0 -1435 1445 0 1445 0 0 1435 0 1435 -1445 0 -1445 0 0
-1435z m1875 1379 c29 -19 102 -58 225 -120 52 -26 126 -66 165 -87 38 -22
108 -60 155 -84 47 -24 103 -55 125 -68 l40 -23 2 -773 c2 -597 0 -778 -10
-790 -7 -8 -39 -29 -72 -46 -33 -17 -132 -70 -220 -118 -88 -48 -214 -115
-280 -150 -66 -34 -147 -76 -180 -95 -33 -18 -87 -47 -120 -66 -34 -18 -115
-60 -180 -93 -66 -34 -147 -77 -180 -95 -33 -19 -96 -53 -141 -77 l-81 -42
-179 98 c-98 53 -206 111 -239 127 -33 16 -69 34 -80 41 -11 6 -69 37 -130 68
l-110 57 -3 785 -2 785 72 37 c40 21 78 41 83 45 6 4 73 40 150 80 77 40 145
75 150 80 12 9 123 69 281 150 65 34 146 77 179 95 135 74 255 138 350 186 55
28 120 63 145 79 54 34 54 34 85 14z"/>
<path d="M2489 2346 c-13 -7 -89 -47 -169 -89 -80 -41 -183 -96 -230 -121 -47
-25 -113 -60 -147 -77 l-63 -32 0 -337 c0 -185 3 -340 6 -343 4 -4 37 10 73
30 66 36 136 73 311 166 52 27 126 67 163 88 38 22 72 39 77 39 4 0 11 7 14
16 9 24 7 662 -2 668 -5 3 -19 -1 -33 -8z"/>
<path d="M1755 1956 c-22 -13 -89 -49 -150 -81 -60 -32 -141 -75 -180 -95 -38
-21 -110 -59 -160 -85 -49 -27 -93 -53 -97 -59 -11 -16 -10 -664 1 -671 5 -3
29 5 53 18 24 14 88 48 143 77 55 29 123 65 150 80 28 15 100 53 160 85 61 31
116 64 123 73 9 12 12 97 12 343 0 180 -3 330 -7 332 -5 3 -26 -5 -48 -17z"/>
<path d="M2485 1581 c-6 -5 -57 -33 -115 -63 -58 -30 -123 -65 -145 -78 -37
-21 -183 -98 -297 -158 l-48 -25 0 -343 c0 -189 3 -344 6 -344 3 0 26 12 52
26 64 36 150 83 252 136 345 183 324 172 332 183 4 6 8 160 8 343 0 313 -1
332 -18 332 -10 0 -22 -4 -27 -9z"/>
<path d="M1730 1174 c-36 -20 -126 -67 -200 -106 -74 -39 -139 -74 -145 -78
-5 -4 -55 -31 -110 -60 -55 -29 -103 -58 -107 -64 -9 -13 -11 -660 -2 -669 6
-5 123 53 269 133 64 35 135 74 260 140 55 29 103 58 107 64 10 15 10 664 0
670 -4 2 -37 -11 -72 -30z"/>
</g>
</svg>
